# xmcd
#
# Track frame offsets: 
#        150
#        19932
#        37407
#        67111
#        77151
#        117628
#        142528
#        161430
#        176844
#        198546
#        219448
#        246850
#        267252
#        284942
#
# Disc length: 3956 seconds
#
# Revision: 0
# Processed by: cddbd v1.5.2PL0 Copyright (c) Steve Scherf et al.
# Submitted via: ExactAudioCopy v0.95b4
#
DISCID=de0f720e
DTITLE=Various Artist - The southern flood (a view to the contemporary rythm'
DTITLE=n blues scene in southwestern E.U.)
DYEAR=1997
DGENRE=R&B
TTITLE0=The Blues Machine_sinister woman
TTITLE1=The Southern Cats_bring on the night
TTITLE2=La Blues Band de Granada_drinkin 'n' walking (parts I and II)
TTITLE3=Richard Ray Farrell and Jimmy Carl Black_two steps to the rear
TTITLE4=Caledonia Blues Band_if i had
TTITLE5=Graham Foster's Night Train_the weight (unplugged)
TTITLE6=La Estación_open the window
TTITLE7=The Southern Cats_contribution to the blues
TTITLE8=La Blues Band de Granada_no blues
TTITLE9=The Blues Machine_Knocking back on your door
TTITLE10=Graham Foster's Night Train_alligator crawl
TTITLE11=Caledonia Blues Band_feelin' good
TTITLE12=Los Lagartos_so tired
TTITLE13=Blues Top_hasta el final
EXTD=
EXTT0=
EXTT1=
EXTT2=
EXTT3=
EXTT4=
EXTT5=
EXTT6=
EXTT7=
EXTT8=
EXTT9=
EXTT10=
EXTT11=
EXTT12=
EXTT13=
PLAYORDER=
